%
M48
M72
T01C0.01378
T02C0.02362
T03C0.03200
T04C0.03543
T05C0.03937
T06C0.04000
%
T01
X221300Y156486
X231300Y156486
X231300Y206486
X201300Y211486
X201300Y246486
X206300Y246486
X146300Y236486
X126300Y236486
X141300Y256486
X106300Y301486
X66300Y311486
X66300Y336486
X111300Y381486
X106300Y386486
X121300Y371486
X146300Y371486
X146300Y361486
X146300Y351486
X146300Y341486
X161300Y341486
X161300Y351486
X161300Y361486
X161300Y371486
X161300Y381486
X146300Y381486
X191300Y381486
X226300Y381486
X331300Y266486
X331300Y256486
X296300Y256486
X286300Y256486
X336300Y211486
X336300Y191486
X286300Y151486
T02
X316300Y406486
X336300Y406486
X81300Y406486
X61300Y406486
T03
X111300Y371486
X131300Y371486
X131300Y331486
X111300Y331486
X191300Y331486
X191300Y321486
X191300Y311486
X191300Y301486
X191300Y291486
X191300Y281486
X191300Y271486
X191300Y261486
X191300Y251486
X191300Y241486
X166300Y241486
X166300Y251486
X221300Y251486
X221300Y241486
X221300Y261486
X221300Y271486
X221300Y281486
X221300Y291486
X221300Y301486
X221300Y311486
X221300Y321486
X221300Y331486
X221300Y341486
X221300Y351486
X221300Y361486
X221300Y371486
X241300Y371486
X241300Y361486
X271300Y356486
X296300Y356486
X296300Y396486
X286300Y411486
X276300Y411486
X271300Y396486
X191300Y371486
X191300Y361486
X191300Y351486
X191300Y341486
X246300Y291486
X256300Y291486
X136300Y411486
X126300Y411486
T04
X66143Y286486
X56300Y286486
X46457Y286486
T05
X216300Y106486
X226300Y106486
X236300Y106486
X246300Y106486
X256300Y106486
X266300Y106486
X291300Y106486
X301300Y106486
X311300Y106486
X321300Y106486
X331300Y106486
T06
X16300Y176486
X16300Y191486
X16300Y206486
X16300Y281486
X16300Y291486
X16300Y301486
X16300Y311486
X16300Y321486
X16300Y331486
X16300Y341486
X16300Y351486
X16300Y361486
X16300Y371486
X16300Y406486
X16300Y416486
X106300Y226486
X106300Y216486
X106300Y206486
X106300Y196486
X251300Y261486
X251300Y271486
X381300Y271486
X381300Y261486
X381300Y251486
X381300Y241486
X381300Y281486
X381300Y311486
X381300Y321486
X381300Y331486
X381300Y341486
X381300Y351486
X371300Y151486
X371300Y141486
X371300Y131486
X371300Y121486
M30
